<svg xmlns="http://www.w3.org/2000/svg" width="260.375" height="57.52" viewBox="0 0 260.375 57.52">
  <g id="Group_1" data-name="Group 1" transform="translate(-2.169 -29.28)">
    <path id="plushie" d="M6.96-56V0H9.6V-56Zm1.52,2.48h10q6.72,0,10.92,3.6T33.6-39.6q0,6.72-4.2,10.36T18.48-25.6h-10v2.4h10a20.654,20.654,0,0,0,9.2-1.96,14.969,14.969,0,0,0,6.28-5.64,16.378,16.378,0,0,0,2.28-8.8,16.328,16.328,0,0,0-2.28-8.84,15.057,15.057,0,0,0-6.28-5.6A20.653,20.653,0,0,0,18.48-56h-10ZM46.16-56V0H72.72V-2.48h-24V-56Zm33.68,0v38.16a25.283,25.283,0,0,0,1.08,7.6A15.643,15.643,0,0,0,84.2-4.36a15.206,15.206,0,0,0,5.36,3.8A18.383,18.383,0,0,0,96.88.8a18.677,18.677,0,0,0,7.36-1.36,14.741,14.741,0,0,0,5.36-3.8,16.406,16.406,0,0,0,3.28-5.88,24.447,24.447,0,0,0,1.12-7.6V-56h-2.64v38.16q0,7.44-3.8,11.8T96.88-1.68q-6.8,0-10.6-4.36t-3.8-11.8V-56Zm46,40.4-2.16,1.28a24.76,24.76,0,0,0,3.12,7.44,16.55,16.55,0,0,0,5.68,5.52A16.55,16.55,0,0,0,141.04.72a17.525,17.525,0,0,0,6.4-1.12,14.689,14.689,0,0,0,4.92-3.08,13.571,13.571,0,0,0,3.16-4.68,15.4,15.4,0,0,0,1.12-5.92,14.554,14.554,0,0,0-1.24-6.24,14.222,14.222,0,0,0-3.24-4.48,20.793,20.793,0,0,0-4.44-3.12,52,52,0,0,0-4.84-2.24,44.727,44.727,0,0,1-7.4-3.36,15.628,15.628,0,0,1-4.96-4.36,10.253,10.253,0,0,1-1.8-6.12,9.322,9.322,0,0,1,3.08-7.36,12.058,12.058,0,0,1,8.28-2.72,13.563,13.563,0,0,1,6.56,1.44,13.231,13.231,0,0,1,4.28,3.6,16.444,16.444,0,0,1,2.44,4.4l2.4-1.28a18.752,18.752,0,0,0-2.96-4.96,16.549,16.549,0,0,0-5.12-4.16,15.663,15.663,0,0,0-7.52-1.68,16.06,16.06,0,0,0-7.28,1.6,12.081,12.081,0,0,0-5,4.52,12.77,12.77,0,0,0-1.8,6.84,12.76,12.76,0,0,0,1.28,5.92,13.456,13.456,0,0,0,3.48,4.28,25.91,25.91,0,0,0,4.84,3.12q2.64,1.32,5.28,2.36a43.163,43.163,0,0,1,6.16,2.88A14.88,14.88,0,0,1,152-20.8a11.792,11.792,0,0,1,1.92,6.96,11.729,11.729,0,0,1-3.36,8.6q-3.36,3.4-9.44,3.4a14.14,14.14,0,0,1-7.68-1.92,14.26,14.26,0,0,1-4.84-5.08A28.356,28.356,0,0,1,125.84-15.6Zm41.84-13.68h37.28v-2.48H167.68ZM203.2-56V0h2.64V-56Zm-36.8,0V0h2.64V-56Zm52.32,0V0h2.56V-56ZM235.28,0h27.44V-2.48H235.28Zm0-53.52h27.44V-56H235.28Zm0,23.84h25.84v-2.48H235.28ZM234.08-56V0h2.64V-56Z" transform="translate(-0.176 86)" fill="#fff"/>
    <circle id="Ellipse_1" data-name="Ellipse 1" cx="8.598" cy="8.598" r="8.598" transform="translate(2.169 38.126)" fill="#fff"/>
  </g>
</svg>
